<svg id="Layer_5" enable-background="new 0 0 64 64" height="512" viewBox="0 0 64 64" width="512" xmlns="http://www.w3.org/2000/svg"><g><path d="m23 46h4v15h-4z"/><path d="m29 61h4v-21l-4 5.333z"/><path d="m35 38h4v23h-4z"/><path d="m9 61v-6.481l-5.671 6.481z"/><path d="m11 61h4v-13.338l-4 4.571z"/><path d="m17 46h4v15h-4z"/><path d="m41 38v23h4v-24.586l-1.586 1.586z"/><path d="m48 7c-4.963 0-9 4.037-9 9s4.037 9 9 9 9-4.037 9-9-4.037-9-9-9zm4 7h-2v-1h-3c-.552 0-1 .448-1 1s.448 1 1 1h2c1.654 0 3 1.346 3 3s-1.346 3-3 3v2h-2v-2h-3v-3h2v1h3c.552 0 1-.448 1-1s-.448-1-1-1h-2c-1.654 0-3-1.346-3-3s1.346-3 3-3v-2h2v2h3z"/><path d="m47 34.414v26.586h4v-30.302c-.11.022-.224.031-.335.051z"/><path d="m48 3c-7.168 0-13 5.832-13 13s5.832 13 13 13 13-5.832 13-13-5.832-13-13-13zm0 24c-6.065 0-11-4.935-11-11s4.935-11 11-11 11 4.935 11 11-4.935 11-11 11z"/><path d="m53 61h4v-33.028c-1.206.909-2.551 1.639-4 2.153z"/><path d="m7 38h2v-4h2v-12h-2v-4h-2v4h-2v12h2z"/><path d="m15 33h2v-4h2v-10h-2v-4h-2v4h-2v10h2z"/><path d="m23 26h2v-4h2v-8h-2v-4h-2v4h-2v8h2z"/><path d="m44.772 30.642c-.746-.164-1.468-.389-2.169-.66l-2.017 2.018h-8.04l-7 8h-11.984l-12.296 13.321 1.469 1.357 11.702-12.678h12.017l7-8h7.96z"/></g></svg>